<svg width="87" height="99" viewBox="0 0 87 99" fill="none" xmlns="http://www.w3.org/2000/svg">
<g filter="url(#filter0_i)">
<path d="M8.69475 46.816L7.51875 49H17.3748L17.7668 48.272L25.7748 33.768L20.8468 24.92L8.69475 46.816ZM49.1268 46.816L33.4468 18.536L30.1988 12.712L29.8628 11.928H27.9588L27.5668 12.712L24.3748 18.536L23.9828 19.264L28.9108 28.168L29.0228 28.392L32.6628 34.944L40.0548 48.272L40.4468 49H50.3028L49.1268 46.816Z" fill="#F06449"/>
<path d="M68.0866 67.272L67.6946 68.112C65.9026 71.808 62.1506 74.16 58.0626 74.16C53.0226 74.16 48.5986 70.576 47.5906 65.648C47.4226 64.976 47.3666 64.192 47.3666 63.464C47.3666 62.736 47.4226 62.064 47.5906 61.336C48.5426 56.352 52.9666 52.768 58.0626 52.768C62.3746 52.768 66.2386 55.344 67.9186 59.264L68.3106 60.16H76.4306L75.8706 58.312C74.8066 54.504 72.4546 51.088 69.3186 48.68C66.0706 46.216 62.1506 44.928 58.0626 44.928C53.5826 44.928 49.2146 46.552 45.8546 49.52C42.4946 52.432 40.3106 56.464 39.6946 60.832C39.5826 61.728 39.5266 62.568 39.5266 63.464C39.5266 64.36 39.5826 65.312 39.6946 66.208C40.3106 70.576 42.5506 74.552 45.8546 77.464C49.2706 80.432 53.5826 82 58.0626 82C62.0386 82 65.8466 80.768 69.0946 78.416C72.2306 76.064 74.5266 72.928 75.7026 69.232L76.3186 67.272H68.0866Z" fill="#233F57"/>
</g>
<defs>
<filter id="filter0_i" x="7.51874" y="11.928" width="68.9118" height="74.072" filterUnits="userSpaceOnUse" color-interpolation-filters="sRGB">
<feFlood flood-opacity="0" result="BackgroundImageFix"/>
<feBlend mode="normal" in="SourceGraphic" in2="BackgroundImageFix" result="shape"/>
<feColorMatrix in="SourceAlpha" type="matrix" values="0 0 0 0 0 0 0 0 0 0 0 0 0 0 0 0 0 0 127 0" result="hardAlpha"/>
<feOffset dy="4"/>
<feGaussianBlur stdDeviation="2"/>
<feComposite in2="hardAlpha" operator="arithmetic" k2="-1" k3="1"/>
<feColorMatrix type="matrix" values="0 0 0 0 0 0 0 0 0 0 0 0 0 0 0 0 0 0 0.25 0"/>
<feBlend mode="normal" in2="shape" result="effect1_innerShadow"/>
</filter>
</defs>
</svg>
